<?xml version="1.0"?>
<svg xmlns="http://www.w3.org/2000/svg" width="100" height="100" viewBox="0 0 26 16" fill="none">
<path fill-rule="evenodd" clip-rule="evenodd" d="M9.48466 14.2895H16.5153V1.71045H9.48466V14.2895Z" fill="#FF5F00"/>
<path fill-rule="evenodd" clip-rule="evenodd" d="M9.93104 7.99997C9.93104 5.44798 11.1312 3.1751 13 1.71044C11.6331 0.639108 9.90872 0 8.03434 0C3.597 0 0 3.58176 0 7.99997C0 12.4182 3.597 15.9999 8.03434 15.9999C9.90872 15.9999 11.6331 15.3608 13 14.2895C11.1312 12.8246 9.93104 10.552 9.93104 7.99997Z" fill="#EB001B"/>
<path fill-rule="evenodd" clip-rule="evenodd" d="M25.7491 12.9573V12.6468H25.6676L25.5741 12.8604L25.4804 12.6468H25.3989V12.9573H25.4563V12.7231L25.5442 12.9251H25.6038L25.6917 12.7226V12.9573H25.7491ZM25.2333 12.9573V12.6997H25.3378V12.6473H25.0721V12.6997H25.1764V12.9573H25.2333ZM26 7.99997C26 12.4182 22.4027 15.9999 17.9656 15.9999C16.0912 15.9999 14.3666 15.3608 13 14.2895C14.8688 12.8248 16.0689 10.552 16.0689 7.99997C16.0689 5.4482 14.8688 3.17532 13 1.71044C14.3666 0.639108 16.0912 0 17.9656 0C22.4027 0 26 3.58176 26 7.99997Z" fill="#F79E1B"/>
</svg>
