<?xml version="1.0"?>
<svg xmlns="http://www.w3.org/2000/svg" width="100" height="100" viewBox="0 0 29 25" fill="none">
<g id="&#xF0;&#x9F;&#xA6;&#x86; icon &quot;wallet&quot;">
<path id="Vector" d="M25.249 24.1784H4.03112C2.35708 24.1784 1 22.9128 1 21.3514V8.62992C1 7.06861 2.35708 5.80292 4.03112 5.80292H25.249C26.9231 5.80292 28.2801 7.06861 28.2801 8.62992V21.3514C28.2801 22.9128 26.9231 24.1784 25.249 24.1784Z" stroke="#1E1E1E"/>
<path id="Vector_2" d="M21.4599 15.6975C21.0415 15.6975 20.7021 15.381 20.7021 14.9907C20.7021 14.6004 21.0415 14.284 21.4599 14.284C21.8784 14.284 22.2177 14.6004 22.2177 14.9907C22.2177 15.381 21.8784 15.6975 21.4599 15.6975Z" fill="#1E1E1E" stroke="black" stroke-linecap="round" stroke-linejoin="round"/>
<path id="Vector_3" d="M23.7334 5.8029V3.82855C23.7334 1.97112 21.8456 0.618412 19.9213 1.097L3.25011 5.24328C1.92323 5.57329 1 6.69405 1 7.97483V8.6299" stroke="#1E1E1E"/>
</g>
</svg>
