<?xml version="1.0"?>
<svg xmlns="http://www.w3.org/2000/svg" width="100" height="100" viewBox="0 0 121 16" fill="none">
<g clip-path="url(#clip0_10_4869)">
<path d="M8.92269 12.6612V9.5339H6.26773V12.6612H4.23825L6.70328 15.1296C7.19906 15.6261 8.00064 15.6261 8.49642 15.1296L10.9615 12.6612H8.92269ZM2.90843 11.3296V4.60165L0.443417 7.07009C-0.0523669 7.56656 -0.0523669 8.36926 0.443417 8.86574L2.90843 11.3296ZM6.26773 3.27464V6.40192H8.92269V3.27464H10.9522L8.48715 0.806194C7.99137 0.309719 7.18978 0.309719 6.694 0.806194L4.22898 3.27464H6.26773ZM14.7424 7.07009L12.2774 4.60165V11.3296L14.7424 8.86574C15.2381 8.36926 15.2381 7.56656 14.7424 7.07009Z" fill="#DA291C"/>
<path d="M23.268 6.69866V4.35552C23.268 3.73841 22.8139 3.2837 22.1976 3.2837H19.2554V5.76141H20.5944V12.661H23.2726V9.246H26.618V12.661H29.2961V3.27905H26.618V6.69866H23.268Z" fill="#DA291C"/>
<path d="M35.4448 3.14453C32.623 3.14453 30.5611 5.18146 30.5611 7.97004C30.5611 10.7586 32.623 12.7956 35.4448 12.7956C38.2666 12.7956 40.3285 10.7586 40.3285 7.97004C40.3285 5.18146 38.2666 3.14453 35.4448 3.14453ZM35.4448 10.1786C34.1752 10.1786 33.2392 9.2414 33.2392 7.97004C33.2392 6.69869 34.1752 5.76145 35.4448 5.76145C36.7144 5.76145 37.6503 6.69869 37.6503 7.97004C37.6503 9.2414 36.7144 10.1786 35.4448 10.1786Z" fill="#DA291C"/>
<path d="M48.6085 7.69624C49.2712 7.29257 49.6835 6.60127 49.6835 5.77069C49.6835 4.32304 48.7476 3.27905 46.8849 3.27905H41.5981V12.6563H46.8849C48.8402 12.6563 49.9754 11.5196 49.9754 9.95127C49.9754 8.94904 49.4426 8.13243 48.6085 7.69624ZM44.0863 5.37165H46.0787C46.7088 5.37165 47.0702 5.67789 47.0702 6.20218C47.0702 6.72653 46.7088 7.03277 46.0787 7.03277H44.0863V5.37165ZM46.2687 10.5962H44.0863V8.85624H46.2687C46.9359 8.85624 47.3112 9.17639 47.3112 9.72856C47.3112 10.276 46.9359 10.5962 46.2687 10.5962Z" fill="#DA291C"/>
<path d="M54.0667 3.27905L50.3739 12.6563H53.2235L53.8168 10.9303H57.5789L58.1722 12.6563H61.0773L57.3844 3.27905H54.0667ZM54.5438 8.82842L55.6003 5.76141H55.8045L56.8609 8.82842H54.5438Z" fill="#DA291C"/>
<path d="M73.8702 3.27905H64.9093V5.75678H66.2483V12.6563H68.9263V5.75678H72.2716V12.6563H74.9502V4.35088C74.9406 3.66881 74.5514 3.27905 73.8702 3.27905Z" fill="#DA291C"/>
<path d="M81.094 3.14453C78.2721 3.14453 76.2103 5.18146 76.2103 7.97004C76.2103 10.7586 78.2721 12.7956 81.094 12.7956C83.9159 12.7956 85.9777 10.7586 85.9777 7.97004C85.9777 5.18146 83.9201 3.14453 81.094 3.14453ZM81.094 10.1786C79.8243 10.1786 78.8883 9.2414 78.8883 7.97004C78.8883 6.69869 79.8243 5.76145 81.094 5.76145C82.3637 5.76145 83.2997 6.69869 83.2997 7.97004C83.2997 9.2414 82.3679 10.1786 81.094 10.1786Z" fill="#DA291C"/>
<path d="M97.6864 10.1786H95.1428V3.27905H92.469V10.1786H89.9254V3.27905H87.2516V12.661H100.364V3.27905H97.6864V10.1786Z" fill="#DA291C"/>
<path d="M110.73 5.75678V3.27905H101.634V5.75678H104.845V12.661H107.519V5.75678H110.73Z" fill="#DA291C"/>
<path d="M117.731 12.661H120.636L116.943 3.28369H113.626L109.933 12.661H112.783L113.375 10.9349H117.138L117.731 12.661ZM114.098 8.82841L115.155 5.76141H115.359L116.415 8.82841H114.098Z" fill="#DA291C"/>
</g>
<defs>
<clipPath id="clip0_10_4869">
<rect width="121" height="15.9912" fill="white"/>
</clipPath>
</defs>
</svg>
