<svg width="29" height="25" viewBox="0 0 29 25" fill="none" xmlns="http://www.w3.org/2000/svg">
<g id="&#240;&#159;&#166;&#134; icon &#34;wallet&#34;">
<path id="Vector" d="M25.3603 24.3684H4.14245C2.46841 24.3684 1.11133 23.1028 1.11133 21.5414V8.81992C1.11133 7.25861 2.46841 5.99292 4.14245 5.99292H25.3603C27.0344 5.99292 28.3914 7.25861 28.3914 8.81992V21.5414C28.3914 23.1028 27.0344 24.3684 25.3603 24.3684Z" stroke="#1E1E1E"/>
<path id="Vector_2" d="M21.5715 15.8874C21.1531 15.8874 20.8137 15.5709 20.8137 15.1806C20.8137 14.7904 21.1531 14.4739 21.5715 14.4739C21.9899 14.4739 22.3293 14.7904 22.3293 15.1806C22.3293 15.5709 21.9899 15.8874 21.5715 15.8874Z" fill="#1E1E1E" stroke="black" stroke-linecap="round" stroke-linejoin="round"/>
<path id="Vector_3" d="M23.8447 5.99284V4.01849C23.8447 2.16106 21.957 0.808354 20.0327 1.28694L3.36144 5.43322C2.03456 5.76323 1.11133 6.88399 1.11133 8.16477V8.81984" stroke="#1E1E1E"/>
</g>
</svg>
