<svg width="27" height="26" viewBox="0 0 27 26" fill="none" xmlns="http://www.w3.org/2000/svg">
<g id="&#240;&#159;&#166;&#134; icon &#34;thumbs up&#34;">
<path id="Vector" d="M20.4144 25.1201H1.89795C1.40203 25.1201 1 24.7452 1 24.2826V10.6037C1 10.1412 1.40203 9.76622 1.89795 9.76622H6.03995C7.09135 9.76622 8.06565 9.25172 8.60657 8.41087L12.6629 2.10547C13.5383 0.744936 15.5998 0.615601 16.6626 1.85458C17.1635 2.43857 17.325 3.21478 17.0945 3.93112L15.5644 8.68808C15.3915 9.22542 15.823 9.76622 16.4245 9.76622H23.2715C25.2451 9.76622 26.6785 11.5166 26.1592 13.2923L23.3021 23.063C22.9469 24.2776 21.7642 25.1201 20.4144 25.1201Z" stroke="#1E1E1E" stroke-linecap="round"/>
<path id="Vector_2" d="M6.23828 25.1202V9.76627" stroke="#1E1E1E" stroke-linecap="round" stroke-linejoin="round"/>
</g>
</svg>
