<svg width="80" height="16" viewBox="0 0 80 16" fill="none" xmlns="http://www.w3.org/2000/svg">
<g clip-path="url(#clip0_10_4851)">
<path fill-rule="evenodd" clip-rule="evenodd" d="M67.3443 12.3969L67.1607 12.2457C66.7148 11.8804 66.6361 11.2127 67.0426 10.7843L71.8164 5.54338C72.1967 5.11504 72.8918 5.03945 73.3377 5.43L73.5213 5.58118C73.9672 5.94653 74.0459 6.61425 73.6394 7.0426L68.8656 12.2835C68.4852 12.7119 67.8164 12.7623 67.3443 12.3969Z" fill="url(#paint0_linear_10_4851)"/>
<path opacity="0.4" fill-rule="evenodd" clip-rule="evenodd" d="M72.7475 8.02512L72.9443 7.81094C72.9574 7.78575 72.9836 7.76055 72.9967 7.73535C72.7869 7.96212 72.5639 8.20149 72.3541 8.44086C72.5115 8.27708 72.6426 8.1385 72.7475 8.02512Z" fill="url(#paint1_radial_10_4851)"/>
<path fill-rule="evenodd" clip-rule="evenodd" d="M73.6656 5.70719L68.8918 0.466235C68.5115 0.0378888 67.8164 -0.0377017 67.3705 0.352849L67.1869 0.50403C66.741 0.869384 66.6623 1.53711 67.0688 1.96545L71.0951 6.34971L71.1869 6.45049C72.3803 7.59695 71.9738 8.73081 71.6721 9.20955C71.9082 8.94498 72.1443 8.68041 72.3672 8.44104C72.577 8.20167 72.8 7.9623 73.0098 7.73553C73.2197 7.50876 73.4164 7.29459 73.5475 7.156C74.0065 6.72766 74.0721 6.13553 73.6656 5.70719Z" fill="url(#paint2_linear_10_4851)"/>
<path fill-rule="evenodd" clip-rule="evenodd" d="M73.4033 12.3969L73.2197 12.2457C72.7738 11.8804 72.6951 11.2127 73.1017 10.7843L77.8754 5.54338C78.2557 5.11504 78.9508 5.03945 79.3967 5.43L79.5803 5.58118C80.0262 5.94653 80.1049 6.61425 79.6984 7.0426L74.9246 12.2835C74.5443 12.7119 73.8754 12.7623 73.4033 12.3969Z" fill="url(#paint3_linear_10_4851)"/>
<path opacity="0.4" fill-rule="evenodd" clip-rule="evenodd" d="M78.7934 8.02512L78.9902 7.81094C79.0033 7.78575 79.0295 7.76055 79.0426 7.73535C78.8328 7.96212 78.6098 8.20149 78.4 8.44086C78.5574 8.27708 78.7016 8.1385 78.7934 8.02512Z" fill="url(#paint4_radial_10_4851)"/>
<path fill-rule="evenodd" clip-rule="evenodd" d="M79.7115 5.70719L74.9377 0.466235C74.5574 0.0378888 73.8623 -0.0377017 73.4164 0.352849L73.2328 0.50403C72.7869 0.869384 72.7082 1.53711 73.1147 1.96545L77.141 6.34971L77.2328 6.45049C78.4262 7.59695 78.0197 8.73081 77.718 9.20955C77.9541 8.94498 78.1902 8.68041 78.4131 8.44104C78.6229 8.20167 78.8459 7.9623 79.0557 7.73553C79.2656 7.50876 79.4623 7.29459 79.5934 7.156C80.0524 6.72766 80.118 6.13553 79.7115 5.70719Z" fill="url(#paint5_linear_10_4851)"/>
<path fill-rule="evenodd" clip-rule="evenodd" d="M0.30164 12.3466C0.118033 12.1702 0.0131149 11.9056 0.0131149 11.5781V1.20954C0.0131149 0.869385 0.118033 0.604818 0.340984 0.390645C0.563935 0.176472 0.839345 0.0756836 1.19344 0.0756836C1.54754 0.0756836 1.86229 0.176472 2.07213 0.390645C2.29508 0.604818 2.4 0.869385 2.4 1.20954V10.7718H7.5541C8.28852 10.7718 8.66885 11.0867 8.66885 11.704C8.66885 12.3214 8.28852 12.6363 7.5541 12.6363H1.12787C0.773771 12.6363 0.498361 12.5355 0.30164 12.3466Z" fill="#929292"/>
<path fill-rule="evenodd" clip-rule="evenodd" d="M10.5311 12.422C10.3082 12.2079 10.2033 11.9307 10.2033 11.5779V1.19685C10.2033 0.856689 10.3082 0.592122 10.5311 0.377949C10.7541 0.163776 11.0295 0.0629883 11.3836 0.0629883C11.7377 0.0629883 12.0525 0.163776 12.2623 0.377949C12.4852 0.592122 12.5902 0.856689 12.5902 1.19685V11.5779C12.5902 11.9181 12.4852 12.2079 12.2623 12.422C12.0393 12.6362 11.7508 12.737 11.3836 12.737C11.0426 12.737 10.7541 12.6362 10.5311 12.422Z" fill="#929292"/>
<path fill-rule="evenodd" clip-rule="evenodd" d="M26.2295 14.992C26.2295 14.7779 26.1508 14.5763 26.0197 14.3621L25.3639 13.4172C24.9836 12.8251 24.5246 12.4219 23.9606 12.2456C25.0492 11.7794 25.8885 11.0487 26.4656 10.0408C27.0557 9.04557 27.3443 7.82352 27.3443 6.42509C27.3443 5.12746 27.0951 3.9936 26.5967 3.03612C26.0984 2.09124 25.3902 1.34793 24.459 0.818797C23.541 0.314859 22.4393 0.050293 21.1934 0.050293C19.9213 0.050293 18.8328 0.289663 17.9016 0.818797C16.9836 1.34793 16.2623 2.07864 15.7639 3.03612C15.2787 4.0062 15.0164 5.12746 15.0164 6.42509C15.0164 7.71013 15.2656 8.84399 15.7639 9.81407C16.2623 10.759 16.9705 11.5023 17.9016 12.0314C18.8328 12.5353 19.9213 12.7999 21.1934 12.7999C21.6393 12.7999 21.9934 12.8755 22.2688 13.0015C22.5443 13.1275 22.7672 13.329 22.9377 13.6062L24.0131 15.3196C24.1443 15.5086 24.3147 15.6597 24.4984 15.7605C24.6951 15.8613 24.9049 15.9117 25.1279 15.9117C25.4164 15.9117 25.6787 15.8109 25.9016 15.6471C26.1246 15.4834 26.2295 15.2566 26.2295 14.992ZM24.9705 6.3999C24.9705 7.86131 24.6295 8.99517 23.9606 9.78887C23.2918 10.5826 22.3606 10.9731 21.1672 10.9731C19.9738 10.9731 19.0295 10.5826 18.3607 9.78887C17.6918 8.99517 17.3508 7.88651 17.3508 6.3999C17.3508 4.91328 17.6918 3.80462 18.3607 3.01092C19.0295 2.22982 19.9606 1.83927 21.1672 1.83927C22.3738 1.83927 23.2918 2.21722 23.9606 3.01092C24.6295 3.80462 24.9705 4.91328 24.9705 6.3999Z" fill="#929292"/>
<path fill-rule="evenodd" clip-rule="evenodd" d="M29.9016 11.578C29.9016 11.9308 30.0066 12.2079 30.2295 12.4221C30.4262 12.6363 30.7279 12.737 31.082 12.7496C31.4492 12.7496 31.7377 12.6489 31.9607 12.4347C32.1836 12.2331 32.2885 11.9559 32.2885 11.5906V7.78586H35.5803C36.9705 7.78586 38.0459 7.45831 38.8197 6.77798C39.5934 6.11027 39.9869 5.16539 39.9869 3.96854C39.9869 2.77169 39.5934 1.8268 38.8197 1.17169C38.0459 0.491377 36.9705 0.163818 35.5803 0.163818H31.0557C30.7016 0.163818 30.4262 0.264606 30.2164 0.440984C30.0066 0.62996 29.9016 0.894527 29.9016 1.23468V11.578ZM37.7312 3.99373C37.7312 5.35436 36.9049 6.04728 35.2787 6.04728L32.2885 6.03468V1.94019H35.2787C36.9049 1.94019 37.7312 2.6331 37.7312 3.99373Z" fill="#929292"/>
<path fill-rule="evenodd" clip-rule="evenodd" d="M52.1967 12.4219C52.4197 12.2204 52.5377 11.9936 52.5377 11.729C52.5377 11.5653 52.4984 11.4267 52.4459 11.2629L47.3443 0.768403C47.2262 0.529033 47.0557 0.352655 46.8328 0.22667C46.6098 0.113285 46.3738 0.050293 46.1115 0.050293C45.8492 0.050293 45.6131 0.100687 45.3902 0.22667C45.1541 0.352655 44.9836 0.541631 44.8787 0.768403L39.7902 11.2629C39.7246 11.4141 39.6852 11.5778 39.6852 11.729C39.6852 12.0062 39.7902 12.2456 40.0262 12.4219C40.2492 12.5983 40.5246 12.6991 40.8 12.6991C41.0098 12.6991 41.1934 12.6487 41.3639 12.5479C41.5344 12.4471 41.6656 12.296 41.7705 12.0818L42.8852 9.71328H49.3377L50.4525 12.0818C50.5443 12.2834 50.6885 12.4471 50.859 12.5479C51.0295 12.6487 51.2262 12.6991 51.4098 12.6991C51.7115 12.6991 51.9738 12.5983 52.1967 12.4219ZM48.5508 7.9495H43.6852L46.1115 2.70856L48.5508 7.9495Z" fill="#929292"/>
<path fill-rule="evenodd" clip-rule="evenodd" d="M61.718 0.0755867C61.9934 0.0755867 62.2426 0.176374 62.4656 0.390547C62.6885 0.604721 62.7934 0.831492 62.7934 1.13385C62.7934 1.36063 62.7016 1.6 62.518 1.81417L58.3344 6.71496V11.6157C58.3344 11.9811 58.2295 12.2583 58.0065 12.4724C57.7836 12.6866 57.5082 12.7748 57.1672 12.7748C56.8131 12.7748 56.5115 12.674 56.2885 12.4724C56.0656 12.2709 55.9607 11.9937 55.9607 11.6157V6.71496L51.8033 1.80157C51.6197 1.5874 51.5279 1.36063 51.5279 1.12126C51.5279 0.844091 51.6328 0.592122 51.8557 0.377949C52.0787 0.163776 52.341 0.0629883 52.6033 0.0629883C52.918 0.0629883 53.1672 0.188973 53.3902 0.453539L57.1541 4.93858L60.9049 0.453539C61.1279 0.201571 61.4033 0.0755867 61.718 0.0755867Z" fill="#929292"/>
</g>
<defs>
<linearGradient id="paint0_linear_10_4851" x1="68.8353" y1="14.0327" x2="75.3566" y2="10.7413" gradientUnits="userSpaceOnUse">
<stop stop-color="#FFE81D"/>
<stop offset="0.7072" stop-color="#E89D2C"/>
</linearGradient>
<radialGradient id="paint1_radial_10_4851" cx="0" cy="0" r="1" gradientUnits="userSpaceOnUse" gradientTransform="translate(70.117 8.68009) scale(3.1976 3.51055)">
<stop offset="0.4185" stop-color="#123F06" stop-opacity="0.01"/>
<stop offset="1" stop-color="#123F06"/>
</radialGradient>
<linearGradient id="paint2_linear_10_4851" x1="65.8182" y1="4.63073" x2="72.7189" y2="10.1722" gradientUnits="userSpaceOnUse">
<stop offset="0.0937643" stop-color="#1FAEFF"/>
<stop offset="1" stop-color="#0D7CFF"/>
</linearGradient>
<linearGradient id="paint3_linear_10_4851" x1="74.8943" y1="14.0327" x2="81.4157" y2="10.7413" gradientUnits="userSpaceOnUse">
<stop stop-color="#FFE81D"/>
<stop offset="0.7072" stop-color="#E89D2C"/>
</linearGradient>
<radialGradient id="paint4_radial_10_4851" cx="0" cy="0" r="1" gradientUnits="userSpaceOnUse" gradientTransform="translate(76.1682 8.68009) scale(3.19764 3.51055)">
<stop offset="0.4185" stop-color="#123F06" stop-opacity="0.01"/>
<stop offset="1" stop-color="#123F06"/>
</radialGradient>
<linearGradient id="paint5_linear_10_4851" x1="71.8641" y1="4.63073" x2="78.7648" y2="10.1722" gradientUnits="userSpaceOnUse">
<stop offset="0.0937643" stop-color="#1FAEFF"/>
<stop offset="1" stop-color="#0D7CFF"/>
</linearGradient>
<clipPath id="clip0_10_4851">
<rect width="80" height="16" fill="white"/>
</clipPath>
</defs>
</svg>
