<svg width="48" height="16" viewBox="0 0 48 16" fill="none" xmlns="http://www.w3.org/2000/svg">
<g clip-path="url(#clip0_10_4847)">
<path d="M20.779 14.9001H16.895L19.325 0.264107H23.208L20.78 14.9001H20.779ZM34.861 0.623107C33.7471 0.205652 32.5665 -0.00545931 31.377 0.000107279C27.541 0.000107279 24.84 1.99311 24.823 4.84111C24.791 6.94311 26.757 8.11111 28.228 8.81111C29.731 9.52811 30.241 9.99511 30.241 10.6331C30.226 11.6131 29.027 12.0661 27.909 12.0661C26.358 12.0661 25.527 11.8331 24.264 11.2871L23.753 11.0541L23.209 14.3391C24.12 14.7431 25.799 15.1021 27.541 15.1171C31.617 15.1171 34.271 13.1561 34.302 10.1201C34.318 8.45411 33.279 7.17711 31.042 6.13411C29.682 5.46411 28.851 5.01411 28.851 4.32811C28.867 3.70511 29.555 3.06811 31.088 3.06811C32.0821 3.03929 33.0704 3.23052 33.982 3.62811L34.333 3.78311L34.861 0.623107ZM40.024 9.71511C40.344 8.87511 41.574 5.62111 41.574 5.62111C41.558 5.65111 41.894 4.76411 42.086 4.21911L42.357 5.48011C42.357 5.48011 43.093 8.98311 43.252 9.71511H40.024ZM44.818 0.265107H41.814C40.887 0.265107 40.184 0.530107 39.784 1.47911L34.014 14.8991H38.089L38.905 12.7041H43.892C44.004 13.2181 44.356 14.8991 44.356 14.8991H47.952L44.82 0.265107H44.818ZM13.646 0.265107L9.842 10.2451L9.426 8.22011C8.723 5.88511 6.517 3.34811 4.056 2.08611L7.54 14.8841H11.648L17.754 0.265107H13.646Z" fill="#1434CB"/>
<path d="M6.314 0.264893H0.064L0 0.560893C4.875 1.77489 8.104 4.70289 9.43 8.22089L8.072 1.49489C7.848 0.560893 7.16 0.295893 6.314 0.264893Z" fill="#FFE81D"/>
</g>
<defs>
<clipPath id="clip0_10_4847">
<rect width="48" height="16" fill="white"/>
</clipPath>
</defs>
</svg>
